<svg width="256" height="256" viewBox="0 0 256 256" fill="none" xmlns="http://www.w3.org/2000/svg">
  <defs>
    <linearGradient id="econGradient" x1="24" y1="20" x2="228" y2="236" gradientUnits="userSpaceOnUse">
      <stop offset="0" stop-color="#24D67A"/>
      <stop offset="0.55" stop-color="#37C3FF"/>
      <stop offset="1" stop-color="#4F46E5"/>
    </linearGradient>
    <linearGradient id="econInner" x1="50" y1="44" x2="208" y2="208" gradientUnits="userSpaceOnUse">
      <stop offset="0" stop-color="#081328"/>
      <stop offset="1" stop-color="#132646"/>
    </linearGradient>
    <filter id="econShadow" x="0" y="0" width="256" height="256" filterUnits="userSpaceOnUse" color-interpolation-filters="sRGB">
      <feDropShadow dx="0" dy="14" stdDeviation="16" flood-color="#020617" flood-opacity="0.45"/>
    </filter>
  </defs>

  <g filter="url(#econShadow)">
    <rect x="20" y="20" width="216" height="216" rx="52" fill="url(#econGradient)"/>
    <rect x="34" y="34" width="188" height="188" rx="44" fill="url(#econInner)"/>
  </g>

  <path d="M83 96C83 85.5066 91.5066 77 102 77H168V95H106C102.686 95 100 97.6863 100 101V119H162V137H100V155C100 158.314 102.686 161 106 161H168V179H102C91.5066 179 83 170.493 83 160V96Z" fill="#E2E8F0"/>

  <circle cx="70" cy="86" r="8" fill="#24D67A"/>
  <circle cx="184" cy="68" r="7" fill="#37C3FF"/>
  <circle cx="186" cy="188" r="9" fill="#4F46E5"/>

  <path d="M78 86H94" stroke="#24D67A" stroke-width="4" stroke-linecap="round"/>
  <path d="M184 75V93" stroke="#37C3FF" stroke-width="4" stroke-linecap="round"/>
  <path d="M177 180L164 168" stroke="#4F46E5" stroke-width="4" stroke-linecap="round"/>
</svg>
